<svg width="20" height="20" viewBox="0 0 20 20" fill="none" xmlns="http://www.w3.org/2000/svg">
<path d="M0.75 7.66108C0.75 7.61842 0.77093 7.57848 0.806003 7.55419L10.3054 0.977676C10.3514 0.945825 10.4126 0.946987 10.4574 0.980561L19.198 7.536C19.2307 7.56055 19.25 7.59908 19.25 7.64V19.12C19.25 19.1918 19.1918 19.25 19.12 19.25H13.68C13.6082 19.25 13.55 19.1918 13.55 19.12V13.68C13.55 12.7798 12.8202 12.05 11.92 12.05H8.88C7.97978 12.05 7.25 12.7798 7.25 13.68V19.12C7.25 19.1918 7.1918 19.25 7.12 19.25H0.88C0.808203 19.25 0.75 19.1918 0.75 19.12V7.66108Z" stroke="#939DAE" stroke-width="1.5"/>
</svg>
