<svg width="20" height="22" viewBox="0 0 20 22" fill="none" xmlns="http://www.w3.org/2000/svg">
<path fill-rule="evenodd" clip-rule="evenodd" d="M5.77796 6.55909C5.77796 3.67666 7.77149 1.53577 10.0063 1.53577C12.2411 1.53577 14.2347 3.67666 14.2347 6.55909C14.2347 9.43664 12.2479 11.5751 10.0177 11.5824C10.0142 11.5824 10.0107 11.5824 10.0072 11.5824C10.0033 11.5824 9.99937 11.5824 9.99545 11.5824C7.76503 11.5755 5.77796 9.43686 5.77796 6.55909ZM7.006 12.1232C5.3455 10.9575 4.27796 8.8592 4.27796 6.55909C4.27796 3.06449 6.7422 0.0357666 10.0063 0.0357666C13.2704 0.0357666 15.7347 3.06449 15.7347 6.55909C15.7347 8.85891 14.6674 10.957 13.0073 12.1227C16.5501 13.4458 19.0545 17.0457 19.0545 21.2144C19.0545 21.6287 18.7187 21.9644 18.3045 21.9644C17.8903 21.9644 17.5545 21.6287 17.5545 21.2144C17.5545 16.6786 14.1347 13.0892 10.0189 13.0824C10.0147 13.0824 10.0105 13.0824 10.0063 13.0824C10.0024 13.0824 9.99841 13.0824 9.99446 13.0824C5.87921 13.0898 2.45996 16.679 2.45996 21.2144C2.45996 21.6287 2.12417 21.9644 1.70996 21.9644C1.29575 21.9644 0.959961 21.6287 0.959961 21.2144C0.959961 17.0461 3.46377 13.4466 7.006 12.1232Z" fill="#939DAE"/>
</svg>
